<svg xmlns="http://www.w3.org/2000/svg" viewBox="0 0 204.5 161.2" style="enable-background:new 0 0 204.5 161.2" xml:space="preserve">
  <path d="M202.4 101.2c-.4-.5-.8-.9-1.4-1.2l-55-26.8c-1.8-.9-3.9-.1-4.7 1.6-.5 1-.5 2.2.1 3.2l10.9 20.5c-13.4 1.9-43.1 4.1-73-8.3C58 81.5 42.9 71.3 34 64.4c-9.6-7.6-14.3-13.1-14.4-13.2-2.8-3.4-7.9-3.9-11.3-1.1-3.3 2.8-3.8 7.9-1 11.3.8 1 21.2 25.2 65.8 43.7 21.1 8.7 41.7 11.1 57.9 11.1 9 0 16.6-.7 22.2-1.5l-7.5 21.1c-.7 1.8.3 3.9 2.2 4.5 1.1.4 2.2.2 3.2-.4l50.4-33.8c1.6-1.1 2-3.3.9-4.9z" style="fill:#5ce0a6"/>
</svg>
