<?xml version="1.0" encoding="utf-8"?>
<!-- Generator: Adobe Illustrator 25.2.3, SVG Export Plug-In . SVG Version: 6.00 Build 0)  -->
<svg version="1.1" id="Layer_1" xmlns="http://www.w3.org/2000/svg" xmlns:xlink="http://www.w3.org/1999/xlink" x="0px" y="0px"
	 viewBox="0 0 80 71.6" style="enable-background:new 0 0 80 71.6;" xml:space="preserve">
<style type="text/css">
	.st0{fill:#DDDFE1;}
</style>
<g id="Group_12727" transform="translate(-1074 -306.16)">
	<path id="Path_39837" class="st0" d="M1074.8,335.3c10.2-2.1,18.1-10.1,20.2-20.3c0.1-0.5,0.6-0.9,1.1-0.8l0,0c0.5,0,1,0.4,1.1,0.8
		c2.1,10.2,10,18.2,20.2,20.3c0.5,0.1,0.9,0.6,0.8,1.1c0,0.5-0.4,1-0.8,1.1c-10.2,2.1-18.1,10.1-20.2,20.2c-0.1,0.5-0.6,0.9-1.1,0.8
		c-0.5,0-1-0.4-1.1-0.8c-2.1-10.2-10.1-18.1-20.2-20.2c-0.6-0.2-1-0.8-0.8-1.4C1074.1,335.7,1074.4,335.4,1074.8,335.3z"/>
	<path id="Path_39838" class="st0" d="M1108.8,359.1c8.2-1.7,14.6-8.1,16.3-16.4c0.1-0.4,0.4-0.7,0.8-0.7l0,0c0.4,0,0.8,0.3,0.8,0.7
		c1.7,8.2,8.1,14.7,16.3,16.4c0.5,0.1,0.8,0.6,0.7,1c-0.1,0.3-0.3,0.6-0.7,0.7c-8.2,1.7-14.6,8.1-16.3,16.3c-0.1,0.5-0.6,0.8-1,0.7
		c-0.3-0.1-0.6-0.3-0.7-0.7c-1.7-8.2-8.1-14.6-16.3-16.3c-0.5-0.1-0.8-0.6-0.7-1C1108.2,359.4,1108.5,359.2,1108.8,359.1z"/>
	<path id="Path_39839" class="st0" d="M1137.9,339.8c-0.1,0.5-0.6,0.8-1.1,0.8c-0.5,0-1-0.3-1.1-0.8c-1.8-7.5-7.7-13.4-15.2-15.3
		l0,0c-0.5-0.1-0.8-0.6-0.8-1.1c0-0.5,0.3-1,0.8-1.1c7.6-1.8,13.5-7.8,15.3-15.3c0.2-0.6,0.8-1,1.4-0.8c0.4,0.1,0.7,0.4,0.8,0.8
		c1.8,7.6,7.7,13.5,15.3,15.3c0.5,0.1,0.8,0.6,0.8,1.1c0,0.5-0.3,1-0.8,1.1C1145.6,326.4,1139.8,332.3,1137.9,339.8z"/>
</g>
</svg>
