<?xml version="1.0" encoding="utf-8"?>
<!-- Generator: Adobe Illustrator 25.2.3, SVG Export Plug-In . SVG Version: 6.00 Build 0)  -->
<svg version="1.1" id="Layer_1" xmlns="http://www.w3.org/2000/svg" xmlns:xlink="http://www.w3.org/1999/xlink" x="0px" y="0px"
	 viewBox="0 0 100.4 87.3" style="enable-background:new 0 0 100.4 87.3;" xml:space="preserve">
<style type="text/css">
	.st0{fill:#00E3A0;}
	.st1{fill:#BBC0C4;}
	.st2{fill:#55626D;}
</style>
<g id="Group_12643" transform="translate(-324.222 -522.195)">
	<path id="Path_42437" class="st0" d="M353,523.2c-7.5,18.4-20.8,25.5-27.8,28.1c-0.8,0.3-1.2,1.2-0.9,2c0.2,0.4,0.5,0.7,0.9,0.9
		c18.4,7.5,25.5,20.8,28.1,27.8c0.3,0.8,1.2,1.2,2,0.9c0.4-0.2,0.7-0.5,0.9-0.9c7.5-18.4,20.8-25.5,27.8-28.1c0.8-0.3,1.2-1.2,0.9-2
		c-0.2-0.4-0.5-0.7-0.9-0.9c-18.4-7.5-25.5-20.8-28.1-27.8c-0.3-0.8-1.2-1.2-2-0.9C353.5,522.4,353.2,522.8,353,523.2z"/>
	<path id="Path_42438" class="st1" d="M389.1,566.1c-5.4,13.3-15.1,18.5-20.2,20.4c-0.6,0.2-0.9,0.9-0.7,1.5
		c0.1,0.3,0.3,0.5,0.6,0.7c13.3,5.4,18.5,15.1,20.4,20.2c0.2,0.6,0.9,0.9,1.5,0.7c0.3-0.1,0.5-0.3,0.7-0.6
		c5.4-13.3,15.1-18.5,20.2-20.4c0.6-0.2,0.9-0.9,0.7-1.5c-0.1-0.3-0.3-0.5-0.6-0.7c-13.3-5.4-18.5-15.1-20.4-20.2
		c-0.2-0.6-0.9-0.9-1.5-0.7C389.4,565.5,389.2,565.8,389.1,566.1z"/>
	<path id="Path_42439" class="st2" d="M406.5,526.9c-4.2,10.4-11.8,14.4-15.7,15.9c-0.5,0.2-0.7,0.7-0.5,1.1
		c0.1,0.2,0.3,0.4,0.5,0.5c10.4,4.2,14.4,11.8,15.9,15.7c0.2,0.5,0.7,0.7,1.1,0.5c0.2-0.1,0.4-0.3,0.5-0.5
		c4.2-10.4,11.8-14.4,15.7-15.9c0.5-0.2,0.7-0.7,0.5-1.1c-0.1-0.2-0.3-0.4-0.5-0.5c-10.4-4.2-14.4-11.8-15.9-15.7
		c-0.2-0.5-0.7-0.7-1.1-0.5C406.8,526.5,406.6,526.7,406.5,526.9z"/>
</g>
</svg>
